<?xml version="1.0" encoding="UTF-8" standalone="no"?><!DOCTYPE svg PUBLIC "-//W3C//DTD SVG 1.1//EN" "http://www.w3.org/Graphics/SVG/1.1/DTD/svg11.dtd"><svg width="100%" height="100%" viewBox="0 0 358 236" version="1.1" xmlns="http://www.w3.org/2000/svg" xmlns:xlink="http://www.w3.org/1999/xlink" xml:space="preserve" xmlns:serif="http://www.serif.com/" style="fill-rule:evenodd;clip-rule:evenodd;stroke-linejoin:round;stroke-miterlimit:2;"><g><g><g><g><clipPath id="_clip1"><path d="M0,8.36c119.28,48.008 238.559,-41.746 357.839,6.262l0,202.468c-119.28,-43.833 -238.559,50.095 -357.839,6.262l0,-214.992Z"/></clipPath><g clip-path="url(#_clip1)"><path d="M0,223.352c119.28,43.833 238.559,-50.095 357.839,-6.262l0,-202.468c-119.28,-48.008 -238.559,41.746 -357.839,-6.262l0,214.992Z" style="fill:#fff;fill-rule:nonzero;"/></g></g><g><clipPath id="_clip2"><path d="M0,8.36c119.28,48.008 238.559,-41.746 357.839,6.262l0,202.468c-119.28,-43.833 -238.559,50.095 -357.839,6.262l0,-214.992Z"/></clipPath><g clip-path="url(#_clip2)"><path d="M239.602,76.915c39.412,-26.614 78.824,-47.69 118.236,-53.288l0,-9.005c-2.716,-1.093 -5.433,-2.115 -8.149,-3.068c-44.939,8.658 -89.877,36.548 -134.816,68.937c8.243,-1.355 16.486,-2.578 24.729,-3.576Z" style="fill:#bd1f38;fill-rule:nonzero;"/></g></g><g><clipPath id="_clip3"><path d="M0,8.36c119.28,48.008 238.559,-41.746 357.839,6.262l0,202.468c-119.28,-43.833 -238.559,50.095 -357.839,6.262l0,-214.992Z"/></clipPath><g clip-path="url(#_clip3)"><path d="M234.021,139.03c41.272,16.974 82.545,38.548 123.817,76.135l0,-13.429c-33.026,-30.155 -66.053,-50.056 -99.079,-65.551c-8.246,0.685 -16.491,1.664 -24.738,2.845Z" style="fill:#bd1f38;fill-rule:nonzero;"/></g></g><g><clipPath id="_clip4"><path d="M0,8.36c119.28,48.008 238.559,-41.746 357.839,6.262l0,202.468c-119.28,-43.833 -238.559,50.095 -357.839,6.262l0,-214.992Z"/></clipPath><g clip-path="url(#_clip4)"><path d="M0,24.722c35.308,34.573 70.615,56.722 105.922,73.594c8.249,-0.755 16.497,-1.778 24.746,-2.979c-43.556,-18.334 -87.112,-42.158 -130.668,-84.888l0,14.273Z" style="fill:#bd1f38;fill-rule:nonzero;"/></g></g><g><clipPath id="_clip5"><path d="M0,8.36c119.28,48.008 238.559,-41.746 357.839,6.262l0,202.468c-119.28,-43.833 -238.559,50.095 -357.839,6.262l0,-214.992Z"/></clipPath><g clip-path="url(#_clip5)"><path d="M125.057,158.664c-41.686,29.643 -83.371,54.71 -125.057,63.442l0,1.246c7.531,2.768 15.061,4.986 22.591,6.724c42.41,-14.593 84.82,-43.896 127.229,-75.524c-8.254,1.508 -16.508,2.909 -24.763,4.112Z" style="fill:#bd1f38;fill-rule:nonzero;"/></g></g><g><clipPath id="_clip6"><path d="M0,8.36c119.28,48.008 238.559,-41.746 357.839,6.262l0,202.468c-119.28,-43.833 -238.559,50.095 -357.839,6.262l0,-214.992Z"/></clipPath><g clip-path="url(#_clip6)"><path d="M333.352,6.613c-41.764,-10.66 -83.527,-6.742 -125.291,-0.073l0,69.825c41.763,-30.435 83.527,-57.628 125.291,-69.752Z" style="fill:#2c3178;fill-rule:nonzero;"/></g></g><g><clipPath id="_clip7"><path d="M0,8.36c119.28,48.008 238.559,-41.746 357.839,6.262l0,202.468c-119.28,-43.833 -238.559,50.095 -357.839,6.262l0,-214.992Z"/></clipPath><g clip-path="url(#_clip7)"><path d="M152.745,15.963c-41.596,6.765 -83.192,11.079 -124.788,1.257c41.596,33.803 83.192,52.98 124.788,69.218l0,-70.475Z" style="fill:#2c3178;fill-rule:nonzero;"/></g></g><g><clipPath id="_clip8"><path d="M0,8.36c119.28,48.008 238.559,-41.746 357.839,6.262l0,202.468c-119.28,-43.833 -238.559,50.095 -357.839,6.262l0,-214.992Z"/></clipPath><g clip-path="url(#_clip8)"><path d="M357.838,87.825l0,-46.447c-28.331,4.211 -56.662,16.421 -84.993,32.938c28.332,-0.808 56.663,2.464 84.993,13.509Z" style="fill:#2c3178;fill-rule:nonzero;"/></g></g><g><clipPath id="_clip9"><path d="M0,8.36c119.28,48.008 238.559,-41.746 357.839,6.262l0,202.468c-119.28,-43.833 -238.559,50.095 -357.839,6.262l0,-214.992Z"/></clipPath><g clip-path="url(#_clip9)"><path d="M357.838,193.905l0,-45.961c-28.331,-10.75 -56.662,-13.728 -84.993,-12.626c28.332,14.444 56.663,32.742 84.993,58.587Z" style="fill:#2c3178;fill-rule:nonzero;"/></g></g><g><clipPath id="_clip10"><path d="M0,8.36c119.28,48.008 238.559,-41.746 357.839,6.262l0,202.468c-119.28,-43.833 -238.559,50.095 -357.839,6.262l0,-214.992Z"/></clipPath><g clip-path="url(#_clip10)"><path d="M35.037,232.524c39.236,6.413 78.472,0.84 117.708,-6.915l0,-66.239c-39.236,29.4 -78.472,57.053 -117.708,73.154Z" style="fill:#2c3178;fill-rule:nonzero;"/></g></g><g><clipPath id="_clip11"><path d="M0,8.36c119.28,48.008 238.559,-41.746 357.839,6.262l0,202.468c-119.28,-43.833 -238.559,50.095 -357.839,6.262l0,-214.992Z"/></clipPath><g clip-path="url(#_clip11)"><path d="M208.061,214.25c39.362,-7.663 78.724,-12.882 118.086,-5.756c-39.362,-28.566 -78.725,-45.223 -118.086,-59.871l0,65.627Z" style="fill:#2c3178;fill-rule:nonzero;"/></g></g><g><clipPath id="_clip12"><path d="M0,8.36c119.28,48.008 238.559,-41.746 357.839,6.262l0,202.468c-119.28,-43.833 -238.559,50.095 -357.839,6.262l0,-214.992Z"/></clipPath><g clip-path="url(#_clip12)"><path d="M0,149.929l0,50.996c29.316,-6.119 58.632,-20.315 87.949,-38.5c-29.317,1.429 -58.634,-1.372 -87.949,-12.496Z" style="fill:#2c3178;fill-rule:nonzero;"/></g></g><g><clipPath id="_clip13"><path d="M0,8.36c119.28,48.008 238.559,-41.746 357.839,6.262l0,202.468c-119.28,-43.833 -238.559,50.095 -357.839,6.262l0,-214.992Z"/></clipPath><g clip-path="url(#_clip13)"><path d="M0,86.09c29.316,11.429 58.632,14.535 87.949,13.411c-29.316,-15.653 -58.633,-35.781 -87.949,-64.474l0,51.063Z" style="fill:#2c3178;fill-rule:nonzero;"/></g></g><g><clipPath id="_clip14"><path d="M0,8.36c119.28,48.008 238.559,-41.746 357.839,6.262l0,202.468c-119.28,-43.833 -238.559,50.095 -357.839,6.262l0,-214.992Z"/></clipPath><g clip-path="url(#_clip14)"><path d="M163.811,14.114l0,88.101c-54.604,10.135 -109.207,17.832 -163.811,-3.34l0,38.326c54.604,20.832 109.208,12.794 163.811,2.318l0,83.854c11.061,-2.277 22.121,-4.654 33.182,-6.912l0,-83.389c53.615,-10.191 107.23,-17.57 160.846,2.885l0,-36.094c-53.616,-20.789 -107.231,-13.744 -160.846,-3.888l0,-87.611c-11.061,1.87 -22.122,3.86 -33.182,5.75Z" style="fill:#bd1f38;fill-rule:nonzero;"/></g></g></g></g></g></svg>