<?xml version="1.0" encoding="UTF-8" standalone="no"?><!DOCTYPE svg PUBLIC "-//W3C//DTD SVG 1.1//EN" "http://www.w3.org/Graphics/SVG/1.1/DTD/svg11.dtd"><svg width="100%" height="100%" viewBox="0 0 358 236" version="1.1" xmlns="http://www.w3.org/2000/svg" xmlns:xlink="http://www.w3.org/1999/xlink" xml:space="preserve" xmlns:serif="http://www.serif.com/" style="fill-rule:evenodd;clip-rule:evenodd;stroke-linejoin:round;stroke-miterlimit:2;"><g><g><g><g><clipPath id="_clip1"><path d="M0,8.36c119.284,48.012 238.568,-41.75 357.852,6.262l-0,202.486c-119.284,-43.836 -238.568,50.1 -357.852,6.262l0,-215.01Z"/></clipPath><g clip-path="url(#_clip1)"><path d="M0,79.995c119.284,46.621 238.568,-44.531 357.852,2.09l-0,-67.463c-119.284,-48.012 -238.568,41.75 -357.852,-6.262l0,71.635Z" style="fill:#010101;fill-rule:nonzero;"/></g></g><g><clipPath id="_clip2"><path d="M0,8.36c119.284,48.012 238.568,-41.75 357.852,6.262l-0,202.486c-119.284,-43.836 -238.568,50.1 -357.852,6.262l0,-215.01Z"/></clipPath><g clip-path="url(#_clip2)"><path d="M0,151.683c119.284,45.23 238.568,-47.314 357.852,-2.086l-0,-67.512c-119.284,-46.621 -238.568,44.531 -357.852,-2.09l0,71.688Z" style="fill:#df2228;fill-rule:nonzero;"/></g></g><g><clipPath id="_clip3"><path d="M0,8.36c119.284,48.012 238.568,-41.75 357.852,6.262l-0,202.486c-119.284,-43.836 -238.568,50.1 -357.852,6.262l0,-215.01Z"/></clipPath><g clip-path="url(#_clip3)"><path d="M0,223.37c119.284,43.838 238.568,-50.098 357.852,-6.262l-0,-67.512c-119.284,-45.229 -238.568,47.314 -357.852,2.086l0,71.688Z" style="fill:#f6d927;fill-rule:nonzero;"/></g></g><g><clipPath id="_clip4"><path d="M0,8.36c119.284,48.012 238.568,-41.75 357.852,6.262l-0,202.486c-119.284,-43.836 -238.568,50.1 -357.852,6.262l0,-215.01Z"/></clipPath><g clip-path="url(#_clip4)"><g><clipPath id="_clip5"><path d="M0,8.36c119.284,48.012 238.568,-41.75 357.852,6.262l-0,202.486c-119.284,-43.836 -238.568,50.1 -357.852,6.262l0,-215.01Z"/></clipPath><g clip-path="url(#_clip5)"><path d="M129.402,69.245l-0,84.234c-0.001,31.918 42.013,20.238 49.52,30.98c7.506,-14.238 49.555,-18.408 49.554,-49.066l0,-82.846c-33.024,4.591 -66.049,12.106 -99.074,16.698Z" style="fill:#f4d628;fill-rule:nonzero;"/></g></g><g><clipPath id="_clip6"><path d="M0,8.36c119.284,48.012 238.568,-41.75 357.852,6.262l-0,202.486c-119.284,-43.836 -238.568,50.1 -357.852,6.262l0,-215.01Z"/></clipPath><g clip-path="url(#_clip6)"><path d="M178.922,185.085c-0.088,-0.135 -0.176,-0.27 -0.264,-0.404c-2.66,-3.875 -9.718,-4.762 -17.89,-5.896c-14.105,-1.807 -31.688,-4.826 -31.686,-25.256l0,-84.541c33.231,-4.6 66.462,-12.178 99.693,-16.777l0,83.139c-0.001,19.961 -17.563,28.654 -31.695,36.156c-8.17,4.336 -15.236,8.113 -17.891,13.068c-0.089,0.169 -0.178,0.339 -0.267,0.511Zm-49.23,-115.58l0,83.93c0.001,19.965 16.633,22.824 31.291,24.734c8.021,1.111 14.992,1.973 17.939,5.738c2.946,-4.961 9.921,-8.678 17.974,-12.936c14.626,-7.793 31.255,-15.998 31.255,-35.527l0,-82.555c-32.82,4.583 -65.639,12.034 -98.459,16.616Z" style="fill:#010101;fill-rule:nonzero;"/></g></g><g><clipPath id="_clip7"><path d="M0,8.36c119.284,48.012 238.568,-41.75 357.852,6.262l-0,202.486c-119.284,-43.836 -238.568,50.1 -357.852,6.262l0,-215.01Z"/></clipPath><g clip-path="url(#_clip7)"><path d="M175.676,73.53c0.496,2.365 -0.491,8.551 -1.75,10.82c-1.249,2.221 -4.507,6.57 -4.754,10.381c-1.253,19.082 5.76,45.02 9.75,63.721c4.01,-20.324 11.003,-48.861 9.754,-67.391c-1.226,-18.482 -3.749,-23.037 -3.747,-23.039c-3.085,1.834 -6.169,3.67 -9.253,5.508Z" style="fill:#010101;fill-rule:nonzero;"/></g></g><g><clipPath id="_clip8"><path d="M0,8.36c119.284,48.012 238.568,-41.75 357.852,6.262l-0,202.486c-119.284,-43.836 -238.568,50.1 -357.852,6.262l0,-215.01Z"/></clipPath><g clip-path="url(#_clip8)"><path d="M176.661,76.095c-4.652,0.512 -8.567,0.301 -11.755,-0.584c1.337,1.398 4.367,2.191 9.02,2.332c0.911,-0.584 1.823,-1.166 2.735,-1.748Z" style="fill:#ca2128;fill-rule:nonzero;"/></g></g><g><clipPath id="_clip9"><path d="M0,8.36c119.284,48.012 238.568,-41.75 357.852,6.262l-0,202.486c-119.284,-43.836 -238.568,50.1 -357.852,6.262l0,-215.01Z"/></clipPath><g clip-path="url(#_clip9)"><path d="M173.965,77.677c-4.757,0.172 -7.815,-0.617 -9.169,-2.066c3.334,0.619 7.265,0.838 11.883,0.297c-0.006,0.109 -0.012,0.219 -0.018,0.33c-4.674,0.516 -8.632,0.32 -11.808,-0.629c1.494,1.142 4.49,1.951 9.112,2.068Z" style="fill:#010101;fill-rule:nonzero;"/></g></g><g><clipPath id="_clip10"><path d="M0,8.36c119.284,48.012 238.568,-41.75 357.852,6.262l-0,202.486c-119.284,-43.836 -238.568,50.1 -357.852,6.262l0,-215.01Z"/></clipPath><g clip-path="url(#_clip10)"><path d="M175.183,66.081c-7.508,-2.385 -12.025,2.703 -7.015,8.553c0.504,-1.344 5.245,-3.99 7.507,1.643c-1.158,0.857 -3.926,1.471 -8.25,1.764c2.238,1.301 9.006,0.332 10.233,-0.662c1.262,-0.963 -2.235,-6.58 -2.234,-6.58c-0.079,-1.573 -0.16,-3.146 -0.241,-4.718Z" style="fill:#ca2128;fill-rule:nonzero;"/></g></g><g><clipPath id="_clip11"><path d="M0,8.36c119.284,48.012 238.568,-41.75 357.852,6.262l-0,202.486c-119.284,-43.836 -238.568,50.1 -357.852,6.262l0,-215.01Z"/></clipPath><g clip-path="url(#_clip11)"><path d="M174.818,78.46c-2.564,0.477 -5.986,0.609 -7.494,-0.314c4.413,-0.58 7.154,-1.143 8.277,-2.012c-1.42,-3.107 -3.563,-3.258 -4.719,-3.072l-0.022,0.004c-1.35,0.248 -2.353,1.074 -2.546,1.621c-2.538,-2.566 -3.035,-5.344 -1.641,-7.262c1.547,-2.123 4.811,-2.689 8.559,-1.486c-0.043,0.098 -0.086,0.193 -0.128,0.289c-3.553,-1.107 -6.772,-0.604 -8.18,1.363c-1.306,1.771 -0.801,4.387 1.368,6.889c-0.019,-0.596 1.258,-1.49 2.612,-1.74c1.227,-0.199 3.522,-0.066 4.93,3.43c-1.285,1.109 -4.023,1.701 -8.431,2.008c2.281,1.002 8.98,0.045 10.185,-0.926c0.817,-0.652 -0.987,-4.205 -2.304,-6.357c0.872,0.746 3.795,5.578 2.48,6.625c-0.451,0.319 -1.581,0.686 -2.946,0.94Z" style="fill:#010101;fill-rule:nonzero;"/></g></g><g><clipPath id="_clip12"><path d="M0,8.36c119.284,48.012 238.568,-41.75 357.852,6.262l-0,202.486c-119.284,-43.836 -238.568,50.1 -357.852,6.262l0,-215.01Z"/></clipPath><g clip-path="url(#_clip12)"><path d="M184.436,69.606c1.262,-0.469 3.254,-1.6 4.754,-3.312c-2.762,0.504 -7.772,-0.121 -9.781,-0.727c-1.987,-0.664 -5.483,-2.24 -5.484,1.984c0.001,4.271 4.507,6.693 3.733,10.303c2.26,-2.751 4.519,-5.501 6.778,-8.248Z" style="fill:#010101;fill-rule:nonzero;"/></g></g><g><clipPath id="_clip13"><path d="M0,8.36c119.284,48.012 238.568,-41.75 357.852,6.262l-0,202.486c-119.284,-43.836 -238.568,50.1 -357.852,6.262l0,-215.01Z"/></clipPath><g clip-path="url(#_clip13)"><path d="M178.192,68.024c0,0.002 -2.517,-0.795 -3.008,-1.178c-0.489,-0.416 -1.257,2.979 0.99,3.576c0.333,-0.927 1.001,-1.698 2.018,-2.398Z" style="fill:#eff6fc;fill-rule:nonzero;"/></g></g><g><clipPath id="_clip14"><path d="M0,8.36c119.284,48.012 238.568,-41.75 357.852,6.262l-0,202.486c-119.284,-43.836 -238.568,50.1 -357.852,6.262l0,-215.01Z"/></clipPath><g clip-path="url(#_clip14)"><path d="M176.432,66.853c-1.183,0.564 -1.428,1.496 -0.757,2.877c0.175,-1.168 0.985,-2.082 2.516,-2.699c-0.586,-0.059 -1.172,-0.118 -1.759,-0.178Z" style="fill:#010101;fill-rule:nonzero;"/></g></g><g><clipPath id="_clip15"><path d="M0,8.36c119.284,48.012 238.568,-41.75 357.852,6.262l-0,202.486c-119.284,-43.836 -238.568,50.1 -357.852,6.262l0,-215.01Z"/></clipPath><g clip-path="url(#_clip15)"><path d="M189.925,98.335l-0,29.473c11.173,6.998 22.347,14.02 33.52,21.289l-0,-72.756c-0,-5.611 -1.156,-9.254 -3.492,-10.879l-0,15.164c-10.009,5.715 -20.019,11.672 -30.028,17.709Z" style="fill:#010101;fill-rule:nonzero;"/></g></g><g><clipPath id="_clip16"><path d="M0,8.36c119.284,48.012 238.568,-41.75 357.852,6.262l-0,202.486c-119.284,-43.836 -238.568,50.1 -357.852,6.262l0,-215.01Z"/></clipPath><g clip-path="url(#_clip16)"><path d="M196.662,150.698c-0.315,0.061 -0.63,0.121 -0.945,0.184l0,-62.352c0.315,-0.059 0.63,-0.115 0.945,-0.174l0,62.342Z" style="fill:#f4d628;fill-rule:nonzero;"/></g></g><g><clipPath id="_clip17"><path d="M0,8.36c119.284,48.012 238.568,-41.75 357.852,6.262l-0,202.486c-119.284,-43.836 -238.568,50.1 -357.852,6.262l0,-215.01Z"/></clipPath><g clip-path="url(#_clip17)"><path d="M203.685,149.358c-0.317,0.061 -0.635,0.121 -0.954,0.18l-0,-62.277c0.318,-0.057 0.636,-0.113 0.954,-0.17l-0,62.267Z" style="fill:#f4d628;fill-rule:nonzero;"/></g></g><g><clipPath id="_clip18"><path d="M0,8.36c119.284,48.012 238.568,-41.75 357.852,6.262l-0,202.486c-119.284,-43.836 -238.568,50.1 -357.852,6.262l0,-215.01Z"/></clipPath><g clip-path="url(#_clip18)"><path d="M210.678,148.069c-0.315,0.057 -0.63,0.113 -0.945,0.17l-0,-62.203c0.315,-0.055 0.63,-0.107 0.945,-0.162l-0,62.195Z" style="fill:#f4d628;fill-rule:nonzero;"/></g></g><g><clipPath id="_clip19"><path d="M0,8.36c119.284,48.012 238.568,-41.75 357.852,6.262l-0,202.486c-119.284,-43.836 -238.568,50.1 -357.852,6.262l0,-215.01Z"/></clipPath><g clip-path="url(#_clip19)"><path d="M217.676,146.835c-0.312,0.053 -0.625,0.107 -0.937,0.16l0,-62.131c0.312,-0.051 0.625,-0.1 0.937,-0.15l0,62.121Z" style="fill:#f4d628;fill-rule:nonzero;"/></g></g><g><clipPath id="_clip20"><path d="M0,8.36c119.284,48.012 238.568,-41.75 357.852,6.262l-0,202.486c-119.284,-43.836 -238.568,50.1 -357.852,6.262l0,-215.01Z"/></clipPath><g clip-path="url(#_clip20)"><path d="M183.421,105.083c22.52,-4.318 32.026,-13.074 36.796,-19.291l0,-20.092c2.466,-1.086 3.822,-3.102 3.998,-6.104c-7.021,6.746 -18.027,-4.869 -24.531,10.26c3.523,6.336 10.515,4.406 13.013,0.012c5.01,3.457 0.999,19.73 -29.276,25.203l0,10.012Z" style="fill:#010101;fill-rule:nonzero;"/></g></g><g><clipPath id="_clip21"><path d="M0,8.36c119.284,48.012 238.568,-41.75 357.852,6.262l-0,202.486c-119.284,-43.836 -238.568,50.1 -357.852,6.262l0,-215.01Z"/></clipPath><g clip-path="url(#_clip21)"><path d="M191.675,152.398c-1.749,2.619 -0.237,4.334 1.262,4.791c-0.518,-1.416 -0.25,-2.857 0.76,-4.396c-0.673,-0.134 -1.348,-0.265 -2.022,-0.395Z" style="fill:#ca2128;fill-rule:nonzero;"/></g></g><g><clipPath id="_clip22"><path d="M0,8.36c119.284,48.012 238.568,-41.75 357.852,6.262l-0,202.486c-119.284,-43.836 -238.568,50.1 -357.852,6.262l0,-215.01Z"/></clipPath><g clip-path="url(#_clip22)"><path d="M193.082,157.106c-1.02,-0.018 -2.001,-0.676 -2.269,-1.836c-0.214,-0.844 0.054,-1.871 0.734,-2.9c0.082,0.047 0.164,0.092 0.246,0.137c-0.645,0.959 -0.87,1.855 -0.69,2.672c0.267,1.01 1.145,1.652 1.904,1.828c-0.734,-1.209 -0.465,-2.717 0.554,-4.303c-0.728,1.635 -0.943,3.027 -0.479,4.402Z" style="fill:#010101;fill-rule:nonzero;"/></g></g><g><clipPath id="_clip23"><path d="M0,8.36c119.284,48.012 238.568,-41.75 357.852,6.262l-0,202.486c-119.284,-43.836 -238.568,50.1 -357.852,6.262l0,-215.01Z"/></clipPath><g clip-path="url(#_clip23)"><path d="M200.444,159.218c0.159,0.971 -0.343,2.293 -1.5,4.043c3.012,-1.348 4.264,-2.605 3.25,-4.141c-0.582,0.033 -1.166,0.065 -1.75,0.098Z" style="fill:#ca2128;fill-rule:nonzero;"/></g></g><g><clipPath id="_clip24"><path d="M0,8.36c119.284,48.012 238.568,-41.75 357.852,6.262l-0,202.486c-119.284,-43.836 -238.568,50.1 -357.852,6.262l0,-215.01Z"/></clipPath><g clip-path="url(#_clip24)"><path d="M198.985,163.382c0.972,-1.869 1.459,-3.189 1.297,-4.115c0.107,-0.035 0.214,-0.07 0.321,-0.105c0.163,1.002 -0.346,2.416 -1.544,4.137c1.847,-1.104 2.915,-1.865 3.207,-2.648c0.196,-0.451 0.12,-0.908 -0.216,-1.414c0.665,0.373 0.729,0.947 0.532,1.484c-0.369,0.884 -1.514,1.733 -3.597,2.661Z" style="fill:#010101;fill-rule:nonzero;"/></g></g><g><clipPath id="_clip25"><path d="M0,8.36c119.284,48.012 238.568,-41.75 357.852,6.262l-0,202.486c-119.284,-43.836 -238.568,50.1 -357.852,6.262l0,-215.01Z"/></clipPath><g clip-path="url(#_clip25)"><path d="M210.436,153.589c0.513,1.09 0.599,2.395 0.277,3.939c2.246,-2.408 2.982,-5.242 1.236,-5.453c-0.504,0.504 -1.008,1.008 -1.513,1.514Z" style="fill:#ca2128;fill-rule:nonzero;"/></g></g><g><clipPath id="_clip26"><path d="M0,8.36c119.284,48.012 238.568,-41.75 357.852,6.262l-0,202.486c-119.284,-43.836 -238.568,50.1 -357.852,6.262l0,-215.01Z"/></clipPath><g clip-path="url(#_clip26)"><path d="M210.819,157.614c0.045,-1.602 -0.025,-2.906 -0.532,-3.926c0.103,-0.055 0.205,-0.109 0.308,-0.162c0.51,1.08 0.598,2.43 0.25,4.031c1.222,-1.682 2.121,-3.574 1.874,-4.598c-0.093,-0.457 -0.376,-0.693 -0.809,-0.721c0.652,-0.277 0.985,0.061 1.121,0.566c0.287,1.16 -0.643,3.125 -2.212,4.81Z" style="fill:#010101;fill-rule:nonzero;"/></g></g><g><clipPath id="_clip27"><path d="M0,8.36c119.284,48.012 238.568,-41.75 357.852,6.262l-0,202.486c-119.284,-43.836 -238.568,50.1 -357.852,6.262l0,-215.01Z"/></clipPath><g clip-path="url(#_clip27)"><path d="M210.199,144.675c0.836,0.049 1.661,0.682 2.498,2.035c0.265,-2.768 -0.251,-4.166 -2.749,-4.213c0.084,0.725 0.168,1.451 0.251,2.178Z" style="fill:#ca2128;fill-rule:nonzero;"/></g></g><g><clipPath id="_clip28"><path d="M0,8.36c119.284,48.012 238.568,-41.75 357.852,6.262l-0,202.486c-119.284,-43.836 -238.568,50.1 -357.852,6.262l0,-215.01Z"/></clipPath><g clip-path="url(#_clip28)"><path d="M212.842,146.71c-1.077,-1.166 -1.891,-1.857 -2.683,-1.871c0.021,-0.102 0.042,-0.201 0.062,-0.301c0.884,0 1.768,0.715 2.621,2.066c-0.019,-2.846 -0.72,-3.922 -2.933,-3.969c2.789,-0.265 3.183,1.407 2.933,4.075Z" style="fill:#010101;fill-rule:nonzero;"/></g></g><g><clipPath id="_clip29"><path d="M0,8.36c119.284,48.012 238.568,-41.75 357.852,6.262l-0,202.486c-119.284,-43.836 -238.568,50.1 -357.852,6.262l0,-215.01Z"/></clipPath><g clip-path="url(#_clip29)"><path d="M188.179,140.642c3.926,2.805 7.852,5.609 11.777,8.426c-0,-0.002 -4.508,1.863 -6.259,2.207c-1.772,0.344 -3.259,1.148 -2.757,1.559c0.498,0.4 1.477,0.209 1.997,0.846c0.484,0.648 1.25,1.508 2.234,0.307c1.013,-1.18 4.511,-2.852 4.512,-2.85c0.001,0 -0.002,5.738 -0.251,6.508c-0.237,0.814 -0.998,2.438 -0.488,2.336c0.49,-0.094 0.488,-0.332 2.511,-0.482c1.979,-0.113 1.75,0.428 1.236,-2.477c-0.496,-2.879 -0.25,-6.148 -0.25,-6.146c0.001,-0.004 4.498,2.111 6.012,3.85c1.495,1.713 1.265,0.266 1.983,-0.625c0.776,-0.867 1.755,-1.307 2.524,-1.682c0.734,-0.395 -2.01,-0.662 -2.762,-1.023c-0.761,-0.357 -6.495,-2.539 -6.496,-2.535c-0.001,-0.002 3.238,-1.607 5.247,-2.234c2,-0.594 2.002,-0.588 1.764,-1.543c-0.276,-0.951 0,-2.006 0,-2.486c0.003,-0.471 -0.277,-0.947 -1.526,0.277c-1.235,1.215 -6.99,4.777 -6.992,4.779c-3.259,-3.697 -6.518,-7.389 -9.776,-11.08c-1.414,1.353 -2.827,2.71 -4.24,4.068Z" style="fill:#ca2128;fill-rule:nonzero;"/></g></g><g><clipPath id="_clip30"><path d="M0,8.36c119.284,48.012 238.568,-41.75 357.852,6.262l-0,202.486c-119.284,-43.836 -238.568,50.1 -357.852,6.262l0,-215.01Z"/></clipPath><g clip-path="url(#_clip30)"><path d="M202.766,159.599c-0.144,0.027 -0.325,0.053 -0.571,0.047c-0.255,0.014 -0.51,0.027 -0.766,0.041c-1.423,0.09 -1.822,0.246 -2.111,0.328c-0.214,0.018 -0.428,0.035 -0.642,0.053c-0.173,-0.213 0.04,-0.803 0.382,-1.748c0.077,-0.219 0.153,-0.439 0.229,-0.658c0.211,-0.629 0.25,-4.869 0.25,-6.498c-0.158,0.293 -3.316,1.82 -4.248,2.941c-0.315,0.354 -0.643,0.602 -1.038,0.625c-0.598,0.062 -1.024,-0.424 -1.456,-0.918c-0.234,-0.352 -0.673,-0.449 -1.078,-0.553c-0.348,-0.047 -0.655,-0.107 -0.897,-0.297c-0.025,-0.023 -0.05,-0.045 -0.075,-0.066c-0.014,-0.119 -0.027,-0.24 -0.04,-0.359c0.215,-0.586 1.699,-1.141 2.99,-1.393c1.701,-0.336 6.153,-2.193 6.215,-2.201c-3.942,-2.732 -7.884,-5.455 -11.826,-8.176c0.07,-0.094 0.141,-0.186 0.211,-0.279c3.917,2.811 7.834,5.623 11.751,8.447c-0.25,0.359 -4.621,2.186 -6.351,2.523c-1.5,0.295 -2.595,0.877 -2.7,1.125c0.242,0.262 0.514,0.32 0.836,0.363c0.414,0.121 0.916,0.207 1.24,0.625c0.348,0.459 0.758,0.873 1.218,0.832c0.269,-0.008 0.534,-0.182 0.783,-0.504c1.017,-1.232 4.425,-2.844 4.582,-2.916c0.168,0.359 0.167,5.883 -0.065,6.725c-0.083,0.221 -0.167,0.441 -0.251,0.662c-0.165,0.436 -0.488,1.365 -0.396,1.461c0.624,-0.207 1.061,-0.373 2.511,-0.482c0.262,0 0.525,-0.002 0.788,-0.002c0.271,-0.018 0.555,0.002 0.615,-0.082c0.071,-0.09 -0.001,-0.531 -0.101,-1.092c-0.075,-0.359 -0.15,-0.721 -0.225,-1.08c-0.484,-2.869 -0.266,-6.186 -0.246,-6.217c0.427,-0.082 4.771,2.027 6.302,3.691c0.559,0.684 0.695,0.764 0.946,0.779c0.092,-0.016 0.203,-0.24 0.303,-0.51c0.131,-0.26 0.268,-0.574 0.488,-0.834c0.687,-0.789 1.584,-1.264 2.291,-1.604c0.224,-0.17 -0.551,-0.373 -1.077,-0.488c-0.55,-0.117 -1.131,-0.225 -1.412,-0.355c-0.769,-0.363 -6.509,-2.531 -6.509,-2.527c0.066,-0.301 3.32,-1.906 5.312,-2.523c1.016,-0.309 1.571,-0.486 1.707,-0.676c0.073,-0.094 0,-0.332 -0.097,-0.693c-0.176,-0.684 -0.105,-1.414 -0.04,-1.979c0.017,-0.215 0.039,-0.4 0.04,-0.531c-0.238,-0.404 -0.501,-0.383 -1.235,0.354c-1.261,1.238 -6.813,4.639 -7.063,4.812c-3.314,-3.711 -6.629,-7.416 -9.944,-11.119c3.335,3.617 6.67,7.234 10.005,10.861c-0.018,-0.115 5.576,-3.568 6.79,-4.77c0.642,-0.623 1.127,-0.895 1.447,-0.822c0.137,0.057 0.302,0.184 0.303,0.629c-0.001,0.131 -0.021,0.318 -0.026,0.582c-0.065,0.51 -0.141,1.215 0.026,1.887c0.105,0.418 0.19,0.672 0.044,0.928c-0.189,0.305 -0.668,0.426 -1.926,0.805c-1.825,0.574 -4.732,1.984 -5.167,2.223c0.595,-0.08 5.777,1.914 6.491,2.277c0.268,0.1 0.84,0.242 1.372,0.355c1.183,0.258 1.583,0.354 1.583,0.609c-0.182,0.154 -0.364,0.309 -0.546,0.465c-0.71,0.336 -1.502,0.742 -2.142,1.471c-0.189,0.227 -0.317,0.539 -0.409,0.766c-0.175,0.33 -0.309,0.639 -0.572,0.707c-0.308,0.084 -0.665,-0.166 -1.262,-0.818c-1.383,-1.604 -5.453,-3.561 -5.911,-3.816c0.155,0.314 -0.017,3.359 0.458,5.967c0.063,0.359 0.126,0.719 0.189,1.078c0.176,0.842 0.228,1.172 0.039,1.375c-0.07,0.11 -0.192,0.143 -0.316,0.167Z" style="fill:#010101;fill-rule:nonzero;"/></g></g><g><clipPath id="_clip31"><path d="M0,8.36c119.284,48.012 238.568,-41.75 357.852,6.262l-0,202.486c-119.284,-43.836 -238.568,50.1 -357.852,6.262l0,-215.01Z"/></clipPath><g clip-path="url(#_clip31)"><path d="M178.922,174.962c1.754,-2.447 3.509,-4.891 5.264,-7.332c6.012,2.49 10.412,0.588 13.246,-5.602c-9.006,3.293 -13.246,-4.037 -12.753,-21.957c2.253,3.047 4.506,6.09 6.759,9.135l-0,-9.691c2.749,-0.203 5.498,-0.4 8.246,-0.59c-7.253,-6.359 -14.507,-12.686 -21.761,-19.045c0.332,18.365 0.666,36.725 0.999,55.082Z" style="fill:#010101;fill-rule:nonzero;"/></g></g><g><clipPath id="_clip32"><path d="M0,8.36c119.284,48.012 238.568,-41.75 357.852,6.262l-0,202.486c-119.284,-43.836 -238.568,50.1 -357.852,6.262l0,-215.01Z"/></clipPath><g clip-path="url(#_clip32)"><path d="M167.918,102.497l0,29.582c-11.173,11.338 -22.347,22.654 -33.52,33.719l0,-73.85c0,-5.699 1.179,-9.744 3.497,-12.115l0,15.375c10.007,2.619 20.015,4.994 30.023,7.289Z" style="fill:#010101;fill-rule:nonzero;"/></g></g><g><clipPath id="_clip33"><path d="M0,8.36c119.284,48.012 238.568,-41.75 357.852,6.262l-0,202.486c-119.284,-43.836 -238.568,50.1 -357.852,6.262l0,-215.01Z"/></clipPath><g clip-path="url(#_clip33)"><path d="M162.14,157.503c-0.314,0.061 -0.627,0.121 -0.941,0.184l-0,-62.715c0.313,-0.057 0.627,-0.115 0.941,-0.172l-0,62.703Z" style="fill:#f4d628;fill-rule:nonzero;"/></g></g><g><clipPath id="_clip34"><path d="M0,8.36c119.284,48.012 238.568,-41.75 357.852,6.262l-0,202.486c-119.284,-43.836 -238.568,50.1 -357.852,6.262l0,-215.01Z"/></clipPath><g clip-path="url(#_clip34)"><path d="M155.12,158.847c-0.309,0.059 -0.618,0.117 -0.928,0.176l0,-62.787c0.309,-0.055 0.619,-0.109 0.928,-0.166l0,62.777Z" style="fill:#f4d628;fill-rule:nonzero;"/></g></g><g><clipPath id="_clip35"><path d="M0,8.36c119.284,48.012 238.568,-41.75 357.852,6.262l-0,202.486c-119.284,-43.836 -238.568,50.1 -357.852,6.262l0,-215.01Z"/></clipPath><g clip-path="url(#_clip35)"><path d="M148.123,160.144c-0.313,0.059 -0.627,0.115 -0.941,0.172l0,-62.861c0.314,-0.053 0.627,-0.107 0.941,-0.16l0,62.849Z" style="fill:#f4d628;fill-rule:nonzero;"/></g></g><g><clipPath id="_clip36"><path d="M0,8.36c119.284,48.012 238.568,-41.75 357.852,6.262l-0,202.486c-119.284,-43.836 -238.568,50.1 -357.852,6.262l0,-215.01Z"/></clipPath><g clip-path="url(#_clip36)"><path d="M141.122,161.388c-0.318,0.057 -0.636,0.109 -0.955,0.164l-0,-62.934c0.318,-0.051 0.636,-0.102 0.955,-0.154l-0,62.924Z" style="fill:#f4d628;fill-rule:nonzero;"/></g></g><g><clipPath id="_clip37"><path d="M0,8.36c119.284,48.012 238.568,-41.75 357.852,6.262l-0,202.486c-119.284,-43.836 -238.568,50.1 -357.852,6.262l0,-215.01Z"/></clipPath><g clip-path="url(#_clip37)"><path d="M174.431,106.798c-22.524,4.318 -32.026,-1.492 -36.784,-6.271l-0,-20.371c-2.508,-0.33 -3.825,-1.982 -3.984,-4.98c6.993,4.781 17.996,-10.641 24.501,2.273c-3.49,7.643 -10.507,8.137 -13.014,4.508c-4.983,5 -1,20.766 29.281,14.814l-0,10.027Z" style="fill:#010101;fill-rule:nonzero;"/></g></g><g><clipPath id="_clip38"><path d="M0,8.36c119.284,48.012 238.568,-41.75 357.852,6.262l-0,202.486c-119.284,-43.836 -238.568,50.1 -357.852,6.262l0,-215.01Z"/></clipPath><g clip-path="url(#_clip38)"><path d="M166.167,157.45c1.751,1.938 0.271,4.25 -1.262,5.309c0.519,-1.627 0.251,-2.967 -0.73,-4.125c0.665,-0.395 1.328,-0.789 1.992,-1.184Z" style="fill:#ca2128;fill-rule:nonzero;"/></g></g><g><clipPath id="_clip39"><path d="M0,8.36c119.284,48.012 238.568,-41.75 357.852,6.262l-0,202.486c-119.284,-43.836 -238.568,50.1 -357.852,6.262l0,-215.01Z"/></clipPath><g clip-path="url(#_clip39)"><path d="M164.993,162.864c0.27,-1.701 0.04,-3.014 -0.95,-4.125c1.271,0.951 1.526,2.363 1.021,4.016c0.533,-0.627 1.423,-1.623 1.675,-2.738c0.186,-0.891 -0.039,-1.703 -0.708,-2.406c0.084,-0.078 0.167,-0.156 0.251,-0.236c0.707,0.762 0.962,1.688 0.76,2.619c-0.263,1.269 -1.231,2.31 -2.049,2.87Z" style="fill:#010101;fill-rule:nonzero;"/></g></g><g><clipPath id="_clip40"><path d="M0,8.36c119.284,48.012 238.568,-41.75 357.852,6.262l-0,202.486c-119.284,-43.836 -238.568,50.1 -357.852,6.262l0,-215.01Z"/></clipPath><g clip-path="url(#_clip40)"><path d="M157.398,167.728c-0.158,1.037 0.342,2.176 1.5,3.49c-2.999,-0.184 -4.228,-0.99 -3.246,-2.916c0.583,-0.192 1.164,-0.383 1.746,-0.574Z" style="fill:#ca2128;fill-rule:nonzero;"/></g></g><g><clipPath id="_clip41"><path d="M0,8.36c119.284,48.012 238.568,-41.75 357.852,6.262l-0,202.486c-119.284,-43.836 -238.568,50.1 -357.852,6.262l0,-215.01Z"/></clipPath><g clip-path="url(#_clip41)"><path d="M159.056,171.064c-2.281,0.168 -3.427,-0.25 -3.76,-1.008c-0.229,-0.459 -0.158,-1.064 0.215,-1.809c-0.053,0.754 -0.131,1.244 0.049,1.627c0.324,0.67 1.411,1.029 3.377,1.148c-1.342,-0.992 -1.846,-2.221 -1.698,-3.289c0.113,-0.008 0.227,-0.016 0.339,-0.023c-0.181,0.998 0.314,2.141 1.478,3.354Z" style="fill:#010101;fill-rule:nonzero;"/></g></g><g><clipPath id="_clip42"><path d="M0,8.36c119.284,48.012 238.568,-41.75 357.852,6.262l-0,202.486c-119.284,-43.836 -238.568,50.1 -357.852,6.262l0,-215.01Z"/></clipPath><g clip-path="url(#_clip42)"><path d="M147.407,165.81c-0.497,1.285 -0.576,2.633 -0.242,4.076c-2.259,-1.613 -3.014,-4.217 -1.263,-5.059c0.502,0.328 1.004,0.656 1.505,0.983Z" style="fill:#ca2128;fill-rule:nonzero;"/></g></g><g><clipPath id="_clip43"><path d="M0,8.36c119.284,48.012 238.568,-41.75 357.852,6.262l-0,202.486c-119.284,-43.836 -238.568,50.1 -357.852,6.262l0,-215.01Z"/></clipPath><g clip-path="url(#_clip43)"><path d="M147.301,169.835c-1.835,-0.949 -2.747,-2.607 -2.458,-3.881c0.106,-0.555 0.466,-1.021 1.02,-1.262c-0.341,0.469 -0.625,0.812 -0.717,1.305c-0.263,1.127 0.647,2.715 2.124,3.764c-0.605,-1.289 -0.518,-2.682 -0,-3.963c0.097,0.02 0.193,0.037 0.29,0.057c-0.499,1.21 -0.571,2.56 -0.259,3.98Z" style="fill:#010101;fill-rule:nonzero;"/></g></g><g><clipPath id="_clip44"><path d="M0,8.36c119.284,48.012 238.568,-41.75 357.852,6.262l-0,202.486c-119.284,-43.836 -238.568,50.1 -357.852,6.262l0,-215.01Z"/></clipPath><g clip-path="url(#_clip44)"><path d="M147.658,156.71c-0.828,0.354 -1.675,1.293 -2.507,2.963c-0.246,-2.711 0.264,-4.301 2.762,-5.254c-0.086,0.764 -0.17,1.527 -0.255,2.291Z" style="fill:#ca2128;fill-rule:nonzero;"/></g></g><g><clipPath id="_clip45"><path d="M0,8.36c119.284,48.012 238.568,-41.75 357.852,6.262l-0,202.486c-119.284,-43.836 -238.568,50.1 -357.852,6.262l0,-215.01Z"/></clipPath><g clip-path="url(#_clip45)"><path d="M145.291,159.743c-0.532,-2.629 -0.142,-4.455 2.581,-5.484c-2.14,1.137 -2.832,2.467 -2.563,5.375c0.573,-1.721 1.43,-2.732 2.304,-3.049c0.023,0.094 0.047,0.188 0.071,0.279c-0.775,0.299 -1.578,1.291 -2.393,2.879Z" style="fill:#010101;fill-rule:nonzero;"/></g></g><g><clipPath id="_clip46"><path d="M0,8.36c119.284,48.012 238.568,-41.75 357.852,6.262l-0,202.486c-119.284,-43.836 -238.568,50.1 -357.852,6.262l0,-215.01Z"/></clipPath><g clip-path="url(#_clip46)"><path d="M169.664,144.28c-3.917,4.348 -7.834,8.695 -11.751,13.031c-0,0.002 4.508,0.143 6.263,-0.203c1.74,-0.34 3.249,-0.125 2.749,0.484c-0.484,0.596 -1.499,0.795 -2.019,1.641c-0.483,0.84 -1.227,2.002 -2.234,1.184c-1.011,-0.789 -4.507,-1.123 -4.507,-1.123c-0,0 -0.002,5.781 0.246,6.457c0.249,0.729 1.007,2.064 0.488,2.164c-0.487,0.094 -0.489,-0.139 -2.48,0.477c-2,0.65 -1.748,1.102 -1.254,-2.02c0.488,-3.086 0.237,-6.289 0.237,-6.287c-0,0 -4.5,3.832 -5.977,6.135c-1.512,2.285 -1.261,0.734 -2.019,0.104c-0.743,-0.596 -1.754,-0.682 -2.502,-0.787c-0.753,-0.131 2.006,-1.395 2.753,-2.035c0.748,-0.629 6.496,-4.971 6.496,-4.975c-0.001,0.004 -3.249,-0.398 -5.238,-0.303c-2.007,0.135 -2.007,0.133 -1.75,-0.92c0.242,-1.053 -0,-2.027 -0,-2.512c0.001,-0.48 0.241,-1.051 1.491,-0.268c1.259,0.785 6.997,2.221 6.997,2.219c3.257,-4.963 6.515,-9.93 9.772,-14.9c1.413,0.814 2.826,1.627 4.239,2.437Z" style="fill:#ca2128;fill-rule:nonzero;"/></g></g><g><clipPath id="_clip47"><path d="M0,8.36c119.284,48.012 238.568,-41.75 357.852,6.262l-0,202.486c-119.284,-43.836 -238.568,50.1 -357.852,6.262l0,-215.01Z"/></clipPath><g clip-path="url(#_clip47)"><path d="M155.081,169.003c-0.127,0.023 -0.233,0.033 -0.317,-0.049c-0.178,-0.135 -0.114,-0.488 0.053,-1.404c0.063,-0.385 0.126,-0.771 0.189,-1.156c0.466,-2.904 0.29,-5.947 0.25,-6.281c-0.159,0.424 -4.328,4.035 -5.726,6.166c-0.585,0.877 -0.944,1.262 -1.248,1.289c-0.278,0.033 -0.41,-0.23 -0.555,-0.506c-0.115,-0.191 -0.228,-0.463 -0.439,-0.609c-0.625,-0.514 -1.425,-0.637 -2.137,-0.721c-0.175,-0.092 -0.35,-0.186 -0.524,-0.277c-0.027,-0.252 0.375,-0.494 1.557,-1.184c0.555,-0.311 1.117,-0.66 1.39,-0.861c0.684,-0.615 5.722,-4.4 6.421,-4.934c-0.521,0.1 -3.319,-0.172 -5.101,-0.096c-1.264,0.078 -1.715,0.125 -1.926,-0.111c-0.136,-0.207 -0.07,-0.492 0.039,-0.953c0.171,-0.738 0.098,-1.424 0.036,-1.918c-0.023,-0.26 -0.035,-0.445 -0.036,-0.576c0.001,-0.453 0.172,-0.643 0.295,-0.744c0.329,-0.189 0.807,-0.092 1.456,0.303c1.223,0.781 6.894,2.211 6.979,2.213c3.188,-4.939 6.377,-9.885 9.565,-14.832c-3.171,5.023 -6.342,10.045 -9.512,15.062c-0.428,0.008 -5.968,-1.346 -7.23,-2.15c-0.732,-0.479 -1.02,-0.398 -1.104,-0.338c-0.151,0.564 -0.115,0.746 -0.114,0.957c0.074,0.543 0.159,1.254 -0.04,2.014c-0.096,0.396 -0.136,0.662 -0.07,0.729c0.109,0.148 0.682,0.125 1.693,0.064c1.987,-0.104 5.247,0.293 5.281,0.285c0.041,0.287 -5.721,4.615 -6.456,5.25c-0.315,0.244 -0.893,0.561 -1.447,0.881c-0.509,0.305 -1.301,0.791 -1.372,0.92c1.004,0.053 1.9,0.207 2.59,0.752c0.228,0.18 0.374,0.445 0.483,0.664c0.103,0.238 0.222,0.418 0.316,0.402c0.162,-0.094 0.375,-0.236 0.968,-1.143c1.5,-2.236 5.849,-6.004 6.047,-6.172c0.225,0.117 0.475,3.369 -0.022,6.449c-0.064,0.389 -0.129,0.779 -0.193,1.168c-0.114,0.605 -0.206,1.08 -0.132,1.145c0.039,0.066 0.347,-0.066 0.628,-0.154c0.261,-0.1 0.522,-0.199 0.784,-0.299c1.461,-0.451 1.885,-0.451 2.177,-0.453c0.413,-0.162 0.106,-0.982 -0.075,-1.348c-0.078,-0.189 -0.155,-0.381 -0.233,-0.572c-0.251,-0.756 -0.251,-6.316 -0.251,-6.553c0.347,-0.18 3.747,0.127 4.763,0.969c0.266,0.225 0.554,0.287 0.769,0.201c0.468,-0.141 0.887,-0.719 1.223,-1.312c0.33,-0.551 0.821,-0.834 1.257,-1.121c0.316,-0.168 0.588,-0.336 0.783,-0.559c-0.053,-0.34 -1.14,-0.498 -2.639,-0.205c-1.755,0.344 -6.112,0.195 -6.297,0.184c3.899,-4.432 7.799,-8.873 11.698,-13.314c0.068,0.066 0.135,0.133 0.203,0.199c-3.912,4.348 -7.822,8.693 -11.734,13.029c0.405,-0.207 4.49,-0.094 6.131,-0.416c1.261,-0.244 2.748,-0.273 2.959,0.232c0.014,0.014 0.027,0.029 0.04,0.045c-0.049,0.141 -0.097,0.283 -0.146,0.426c-0.238,0.281 -0.54,0.467 -0.879,0.648c-0.423,0.268 -0.837,0.533 -1.104,0.982c-0.403,0.66 -0.849,1.322 -1.447,1.492c-0.357,0.121 -0.703,0.004 -1.046,-0.221c-0.967,-0.779 -4.402,-1.125 -4.424,-1.121c0.185,1.391 0.235,5.697 0.434,6.252c0.077,0.189 0.153,0.377 0.229,0.566c0.356,0.822 0.555,1.34 0.374,1.621c-0.214,0.064 -0.428,0.131 -0.642,0.195c-0.28,0.027 -0.687,0.023 -2.089,0.48c-0.261,0.086 -0.522,0.17 -0.783,0.256c-0.25,0.101 -0.416,0.144 -0.57,0.173Z" style="fill:#010101;fill-rule:nonzero;"/></g></g><g><clipPath id="_clip48"><path d="M0,8.36c119.284,48.012 238.568,-41.75 357.852,6.262l-0,202.486c-119.284,-43.836 -238.568,50.1 -357.852,6.262l0,-215.01Z"/></clipPath><g clip-path="url(#_clip48)"><path d="M178.922,174.962c-1.749,-1.736 -3.498,-3.477 -5.247,-5.217c-5.999,4.912 -10.409,4.76 -13.246,-0.361c8.99,-0.229 13.246,-9.312 12.736,-27.049c-2.242,3.934 -4.483,7.871 -6.724,11.809l-0,-9.73c-2.759,0.867 -5.518,1.73 -8.276,2.584c7.251,-9.156 14.503,-18.346 21.755,-27.502c-0.333,18.485 -0.666,36.974 -0.998,55.466Z" style="fill:#010101;fill-rule:nonzero;"/></g></g></g></g></g></g></g></svg>